<svg width="80" height="80" viewBox="0 0 80 80" fill="none" xmlns="http://www.w3.org/2000/svg">
<path d="M63.5515 43.5199L64.5946 44.3309C65.5756 45.0936 66.0458 46.3419 65.8118 47.5623C65.5217 49.0749 64.2252 50.1866 62.6859 50.2424C58.4242 50.3967 54.2252 49.1805 50.7058 46.7724L49.4359 45.9035L48.7222 41.5743L57.4453 38.6306L63.5515 43.5199Z" fill="#FF9188"/>
<path d="M41.9578 55.273C41.249 56.0414 41.6289 57.042 42.6691 57.1461C43.5537 57.2347 44.654 57.2056 45.7166 56.8022C46.7793 56.3986 47.6214 55.6899 48.2242 55.0365C48.9331 54.2681 48.5531 53.2675 47.5129 53.1634C46.6283 53.0748 45.5281 53.1038 44.4654 53.5073C43.4028 53.9108 42.5605 54.6197 41.9578 55.273Z" fill="#80D261"/>
<path d="M41.1431 59.1382C42.0147 60.083 41.5475 61.3132 40.2685 61.4413C39.1809 61.5502 37.828 61.5145 36.5214 61.0183C35.2148 60.5221 34.1794 59.6507 33.4382 58.8473C32.5667 57.9026 33.0339 56.6723 34.3129 56.5443C35.4004 56.4354 36.7533 56.4711 38.0599 56.9672C39.3665 57.4634 40.402 58.3348 41.1431 59.1382Z" fill="#80D261"/>
<path d="M41.072 47.7991C41.8356 48.4022 41.6322 49.3772 40.6912 49.6246C39.891 49.8349 38.8754 49.9687 37.8397 49.7526C36.8041 49.5365 35.9267 49.0079 35.2774 48.4952C34.5137 47.8921 34.7171 46.9171 35.6582 46.6697C36.4583 46.4594 37.474 46.3256 38.5096 46.5417C39.5452 46.7577 40.4227 47.2863 41.072 47.7991Z" fill="#80D261"/>
<path d="M37.1175 34.6336L38.2873 33.053C41.5222 28.6746 43.268 23.3743 43.2683 17.9305C43.2685 15.9644 41.9103 14.2589 39.994 13.8189C38.4481 13.4639 36.8338 14.0059 35.8155 15.2221L34.7326 16.5153L29.6707 22.9232L36.1172 35.6002L37.1175 34.6336Z" fill="#FF9188"/>
<path d="M35.057 36.3731L33.2559 37.1572C28.2645 39.33 22.708 39.8452 17.4023 38.627C15.486 38.1871 14.1277 36.4817 14.1277 34.5154C14.1277 32.9293 15.0174 31.4772 16.4306 30.7569L17.9334 29.991L25.1136 26.144L34.2415 31.0174L36.1172 35.5998L35.057 36.3731Z" fill="#FF9188"/>
<path d="M34.9823 34.8051C29.9909 36.978 24.4344 37.4931 19.1287 36.2749C17.2124 35.8349 15.8541 34.1296 15.8541 32.1634C15.8541 31.7641 15.9108 31.3735 16.0177 31.0007C14.8472 31.7759 14.1277 33.0907 14.1277 34.5155C14.1277 36.4816 15.4859 38.187 17.4023 38.6269C22.708 39.8451 28.2645 39.33 33.2559 37.1571L35.0569 36.373L36.1171 35.5999L35.6692 34.5057L34.9823 34.8051Z" fill="#EE6161"/>
<path d="M37.2873 18.5427C39.0775 22.5213 39.3879 27.0094 38.1633 31.1967L37.2947 34.1648C36.8975 35.5259 35.6592 36.4687 34.2419 36.4909L31.1499 36.5397C26.7868 36.6085 22.5423 35.1171 19.1813 32.3354C18.3497 31.6469 17.9144 30.6491 17.9144 29.6406C17.9144 28.9225 18.1358 28.1979 18.5912 27.5772L19.9958 25.661C20.6028 24.8326 20.9301 23.8337 20.9301 22.8062V19.5691C20.9301 17.6879 22.7234 16.3256 24.5359 16.8298L27.631 17.691C28.6236 17.9675 29.6797 17.9188 30.6436 17.5523L32.8564 16.7102C34.5851 16.0513 36.5278 16.8553 37.2873 18.5416V18.5427Z" fill="#F14F42"/>
<path d="M23.2827 32.3354C22.4512 31.6469 22.0159 30.649 22.0159 29.6406C22.0159 28.9224 22.2372 28.1979 22.6927 27.5771L24.0973 25.6609C24.7043 24.8326 25.0316 23.8337 25.0316 22.8062V19.5691C25.0316 18.6172 25.4911 17.7987 26.1795 17.2871L24.5359 16.8298C22.7234 16.3256 20.9301 17.6878 20.9301 19.5691V22.8062C20.9301 23.8337 20.6028 24.8326 19.9958 25.6609L18.5912 27.5771C18.1358 28.1979 17.9144 28.9224 17.9144 29.6406C17.9144 30.649 18.3497 31.6469 19.1813 32.3354C22.5423 35.117 26.7868 36.6085 31.1499 36.5396L33.7227 36.4991C29.9051 36.2402 26.2496 34.7909 23.2827 32.3354Z" fill="#E94444"/>
<path d="M52.6152 30.6735L51.9729 29.5188C51.3689 28.433 50.2069 27.7777 48.9652 27.8227C47.426 27.8786 46.1294 28.9903 45.8395 30.503C45.0365 34.6913 45.5977 39.0266 47.4404 42.8724L48.1068 44.2602L51.3784 44.443L55.106 37.0133L52.6152 30.6735Z" fill="#FF9188"/>
<path d="M49.3552 43.4404C47.5124 39.5947 46.9513 35.2593 47.7542 31.071C48.0443 29.5584 49.3408 28.4466 50.88 28.3909C50.8996 28.3901 50.9208 28.3909 50.9403 28.3906C50.3696 28.0038 49.68 27.7968 48.9652 27.8228C47.426 27.8786 46.1294 28.9903 45.8394 30.5031C45.0364 34.6913 45.5976 39.0267 47.4403 42.8725L48.1066 44.2602L49.794 44.3545L49.3552 43.4404Z" fill="#EE6161"/>
<path d="M56.1927 32.4356L54.03 31.0999C52.7968 30.3383 51.1837 30.6698 50.3508 31.856C48.3866 34.6534 47.4856 38.0601 47.8099 41.4629L48.0396 43.8745C48.145 44.9802 48.9582 45.8884 50.0457 46.1147L52.4172 46.6083C55.7637 47.3048 59.2488 46.7839 62.2454 45.1392C63.516 44.4419 64.0228 42.875 63.4014 41.5656L62.3106 39.2668C62.1562 38.9413 62.1096 38.5753 62.1774 38.2216L62.7838 35.0594C63.0613 33.6125 61.8825 32.2996 60.4141 32.4203L57.2214 32.6827C56.8609 32.7122 56.5004 32.6257 56.1927 32.4356Z" fill="#F14F42"/>
<path d="M50.3509 34.292C51.1838 33.1058 52.7968 32.7743 54.03 33.5359L56.1927 34.8716C56.5004 35.0617 56.8609 35.1482 57.2215 35.1186L60.4142 34.8563C61.3677 34.7779 62.1986 35.3042 62.5884 36.079L62.7839 35.0594C63.0614 33.6125 61.8826 32.2996 60.4142 32.4203L57.2215 32.6827C56.861 32.7123 56.5004 32.6257 56.1927 32.4356L54.03 31.0999C52.7968 30.3383 51.1838 30.6698 50.3509 31.856C48.4148 34.6133 47.5127 37.9626 47.7976 41.3164C48.0121 38.8056 48.8854 36.3793 50.3509 34.292Z" fill="#E94444"/>
<path d="M65.0823 43.7037L64.4295 43.1961C64.5155 42.5431 64.4207 41.86 64.1192 41.2248L63.0284 38.9261C62.9459 38.7521 62.9214 38.5603 62.9577 38.3711L63.5642 35.209C63.7435 34.2733 63.4814 33.3302 62.8449 32.6212C62.2084 31.9122 61.2985 31.5496 60.3491 31.6283L57.1562 31.8907C56.9638 31.9069 56.7748 31.8613 56.6102 31.7597L54.4473 30.424C54.0284 30.1652 53.5749 30.0054 53.1147 29.9371L52.7008 29.1931C51.9939 27.9221 50.6808 27.0934 49.2739 27.0303C47.2519 26.9379 45.44 28.3682 45.0593 30.3533C44.9086 31.1385 44.8025 31.9438 44.7442 32.7417C44.7252 32.982 44.8134 33.2159 44.9865 33.3835C45.136 33.5283 45.3418 33.6102 45.5493 33.6102C45.578 33.6102 45.6068 33.6086 45.6354 33.6055C46.0687 33.5574 46.3817 33.1693 46.3382 32.7365C46.3938 32.0369 46.4885 31.3364 46.6197 30.6526C46.8565 29.4169 47.943 28.5629 49.2027 28.6176C50.0628 28.6561 50.8712 29.1726 51.3121 29.9655L51.3918 30.1087C50.7296 30.3472 50.1329 30.784 49.7007 31.3997C48.0497 33.7511 47.1105 36.516 46.9702 39.3585C46.6915 38.3493 46.4949 37.3161 46.3837 36.2636C46.3863 36.2193 46.3854 36.1743 46.3804 36.1289C46.3328 35.6926 45.9409 35.3765 45.5044 35.4252C45.2966 35.4478 45.0992 35.5554 44.9673 35.7174C44.8349 35.8801 44.77 36.0962 44.7907 36.305C45.0297 38.7125 45.6801 41.0376 46.7239 43.2158L47.3637 44.5513C47.4129 44.7246 47.4755 44.892 47.5506 45.0524C45.4731 46.7554 43.7236 48.8144 42.3815 51.1239V49.8941C42.3815 49.49 42.3641 49.0865 42.3331 48.6842C42.3347 48.5705 42.3252 48.4576 42.3043 48.3464C42.1004 46.2743 41.4911 44.2462 40.5102 42.4063L37.1138 36.0355C37.3867 35.7475 37.618 35.4169 37.7983 35.0519L38.9263 33.5251C42.2383 29.0425 44.0624 23.5041 44.0627 17.9305C44.0628 15.5799 42.4628 13.5707 40.1718 13.0445C38.3253 12.6206 36.4227 13.2593 35.2064 14.712L34.3825 15.6961C33.7838 15.6558 33.1682 15.7409 32.5738 15.9673L30.3604 16.8099C29.5496 17.1186 28.6793 17.1588 27.8434 16.9262L24.7482 16.0647C23.643 15.7571 22.4857 15.9787 21.5724 16.6725C20.6592 17.3665 20.1354 18.4221 20.1354 19.5691V22.8066C20.1354 23.6703 19.8655 24.4949 19.355 25.1915L17.9506 27.1075C17.4197 27.8318 17.15 28.6716 17.1251 29.5116L16.0699 30.0494C14.3819 30.9096 13.3333 32.621 13.3333 34.5157C13.3333 36.8663 14.9333 38.8754 17.2244 39.4015C19.1405 39.8414 21.1029 40.0592 23.0651 40.0592C26.6658 40.0592 30.2653 39.3257 33.5731 37.8858L35.3127 37.1284C35.4805 37.0803 35.6442 37.0219 35.8025 36.9533L39.1082 43.1537C39.6526 44.1751 40.0698 45.2609 40.353 46.3806C39.8035 46.0895 39.2413 45.8829 38.6717 45.7641C37.6753 45.5561 36.5935 45.6026 35.4561 45.9016C34.7166 46.0959 34.1912 46.6139 34.0507 47.287C33.9102 47.96 34.1848 48.6449 34.7849 49.1188C35.708 49.8478 36.6812 50.3227 37.6774 50.5305C38.0855 50.6156 38.5078 50.6581 38.9423 50.6581C39.5377 50.6581 40.1565 50.5773 40.7927 50.4179V57.7005C40.0235 57.0467 39.203 56.5516 38.3419 56.2244C37.1221 55.7613 35.7401 55.6032 34.2337 55.7538C33.3269 55.8445 32.6139 56.3506 32.3264 57.1074C32.0389 57.8643 32.2362 58.7161 32.8543 59.3861C33.3418 59.9144 33.8665 60.3807 34.4138 60.7718C34.7707 61.0269 35.2671 60.9444 35.5221 60.5873C35.7772 60.2303 35.6946 59.734 35.3376 59.4789C34.8786 59.151 34.436 58.7573 34.0221 58.3087C33.8215 58.0911 33.7429 57.853 33.8118 57.6715C33.8807 57.4902 34.0976 57.3643 34.3921 57.3348C35.6513 57.2087 36.7905 57.3348 37.778 57.7099C38.7655 58.0848 39.7013 58.7467 40.5593 59.6769C40.7058 59.8357 40.7864 60.0053 40.7928 60.1559V60.1855C40.7918 60.2304 40.7849 60.2737 40.7696 60.3139C40.7008 60.4953 40.4839 60.6212 40.1894 60.6507C39.4685 60.7228 38.7757 60.7111 38.1299 60.6157C37.696 60.551 37.2922 60.8513 37.2279 61.2853C37.1636 61.7193 37.4636 62.1232 37.8975 62.1874C38.3425 62.2532 38.8039 62.2862 39.2768 62.2862C39.6278 62.2862 39.9853 62.2681 40.3475 62.2318C40.5021 62.2163 40.6505 62.1878 40.7926 62.149V66.2899C40.7926 66.7288 41.1482 67.0844 41.5871 67.0844C42.0259 67.0844 42.3815 66.7288 42.3815 66.2899V60.258C42.3839 60.203 42.3838 60.1479 42.3815 60.0927V57.9055C42.4498 57.9184 42.5188 57.9295 42.5899 57.9365C42.8942 57.9669 43.1924 57.9822 43.4841 57.9822C44.3893 57.9822 45.232 57.8359 45.9986 57.5448C47.0119 57.1599 47.9572 56.4972 48.8079 55.5751C49.3494 54.9881 49.521 54.238 49.267 53.5688C49.0129 52.8995 48.3865 52.4525 47.5919 52.3728C46.3434 52.2481 45.1968 52.3796 44.1832 52.7646C43.7739 52.9201 43.376 53.1215 42.9907 53.3663C44.3029 50.6345 46.2003 48.2148 48.5505 46.2866C48.7001 46.3996 48.8596 46.5003 49.0283 46.5873L50.2569 47.428C53.6885 49.776 57.8255 51.0494 61.9812 51.0494C62.2256 51.0494 62.4701 51.0451 62.7145 51.0362C64.6355 50.9666 66.2299 49.5995 66.5919 47.7119C66.8838 46.1904 66.3054 44.6546 65.0823 43.7037ZM19.2321 28.0467L20.6365 26.1307C21.3483 25.1599 21.7244 24.0104 21.7244 22.8066V19.569C21.7244 18.923 22.0194 18.3285 22.5338 17.9377C23.0482 17.547 23.6998 17.422 24.3225 17.5955L27.4177 18.457C28.5824 18.7812 29.7956 18.7251 30.926 18.2949L33.1394 17.4521C34.4732 16.9444 35.9772 17.5661 36.5629 18.8684C36.6961 19.1642 36.8269 19.4802 36.9517 19.8074C37.1083 20.2175 37.5676 20.4228 37.9772 20.2666C38.3871 20.1102 38.5927 19.6511 38.4364 19.2411C38.3006 18.885 38.1577 18.5401 38.0118 18.2163C37.5991 17.2986 36.899 16.5942 36.0629 16.1643L36.4248 15.7321C37.2557 14.7399 38.5551 14.3034 39.8165 14.5931C41.3814 14.9525 42.4743 16.3249 42.4742 17.9305C42.474 22.1781 41.3461 26.4037 39.2593 30.0959C39.7837 27.6614 39.8325 25.1207 39.3916 22.6708C39.3139 22.239 38.9 21.9524 38.469 22.0296C38.0372 22.1073 37.7501 22.5204 37.8277 22.9522C38.3061 25.6094 38.1584 28.3833 37.4009 30.9741L37.1373 31.8756L34.4162 26.0433C34.2306 25.6458 33.7579 25.4739 33.3603 25.6593C32.9626 25.8448 32.7907 26.3175 32.9762 26.7151L36.4537 34.1683C36.1671 34.8839 35.5688 35.4109 34.8407 35.6097C34.8304 35.6127 34.8201 35.6152 34.8099 35.6186C34.7239 35.6408 34.6355 35.6569 34.5463 35.6699L28.8207 29.8937C28.5119 29.5821 28.0088 29.5798 27.6972 29.8888C27.3857 30.1977 27.3835 30.7006 27.6923 31.0123L32.3651 35.7263L31.1376 35.7457C31.0458 35.7472 30.9546 35.7479 30.8627 35.7479C26.7893 35.7479 22.8306 34.3243 19.6885 31.7235C18.5885 30.8131 18.3881 29.1982 19.2321 28.0467ZM17.58 37.8528C16.0153 37.4935 14.9222 36.1212 14.9222 34.5156C14.9222 33.2215 15.6385 32.0526 16.7914 31.4649L17.3977 31.1559C17.6523 31.8338 18.0807 32.4554 18.675 32.9472C22.012 35.7095 26.1928 37.2535 30.5122 37.3328C26.3464 38.639 21.8411 38.8308 17.58 37.8528ZM40.4892 48.8563C39.592 49.0922 38.7552 49.132 38.002 48.9749C37.249 48.8178 36.4978 48.4467 35.7697 47.8717C35.6406 47.7697 35.5946 47.6674 35.6062 47.6113C35.6179 47.5553 35.701 47.48 35.8601 47.438C36.3994 47.2963 36.9167 47.2252 37.4071 47.2252C37.7327 47.2252 38.0467 47.2566 38.3472 47.3193C39.1002 47.4764 39.8514 47.8475 40.5796 48.4226C40.6666 48.4913 40.7151 48.5597 40.7344 48.6146C40.7367 48.6399 40.7381 48.6653 40.7403 48.6907C40.7231 48.7458 40.6413 48.8162 40.4892 48.8563ZM44.7475 54.2501C45.3326 54.0277 45.9862 53.9162 46.6983 53.9162C46.9369 53.9162 47.1824 53.9288 47.4337 53.9539C47.6133 53.9719 47.7466 54.0405 47.7817 54.1328C47.8168 54.2253 47.7625 54.365 47.6402 54.4976C46.9579 55.2372 46.2159 55.7626 45.4347 56.0593C44.6531 56.356 43.7496 56.4556 42.7483 56.3555C42.5688 56.3375 42.4353 56.2689 42.4003 56.1766C42.3652 56.0841 42.4195 55.9444 42.5418 55.8118C43.2241 55.0721 43.9662 54.5467 44.7475 54.2501ZM51.001 32.3125C51.3775 31.7764 51.9801 31.4864 52.5941 31.4864C52.9431 31.4864 53.2957 31.5801 53.6124 31.7757L55.7751 33.1114C55.7752 33.1114 55.7752 33.1114 55.7752 33.1115C56.2307 33.3928 56.7532 33.519 57.2865 33.4742L60.4793 33.2118C60.9291 33.1747 61.3608 33.3465 61.6627 33.6826C61.9646 34.0187 62.0887 34.466 62.0036 34.9096L61.3973 38.0718C61.2969 38.5949 61.3645 39.1259 61.5931 39.6073L62.6839 41.9059C63.1242 42.8341 62.7638 43.9483 61.8633 44.4425C59.0349 45.9947 55.7379 46.4877 52.5792 45.8303L52.0333 45.7166L55.9905 43.0074C56.3524 42.7596 56.445 42.2651 56.1972 41.903C55.9494 41.5412 55.4552 41.4485 55.0928 41.6964L49.9088 45.2454C49.8775 45.2328 49.8462 45.2198 49.8158 45.2055C49.8097 45.2021 49.8032 45.1996 49.797 45.1963C49.5745 45.0881 49.3811 44.9346 49.2259 44.7483C49.223 44.7445 49.2206 44.7406 49.2177 44.7368C49.2105 44.7277 49.2025 44.7195 49.195 44.7108C49.0651 44.5459 48.9656 44.3567 48.9022 44.151C48.8977 44.1094 48.8901 44.0684 48.8793 44.0283L52.6015 38.8805C52.8586 38.525 52.7787 38.0283 52.4231 37.7711C52.0676 37.5144 51.571 37.5938 51.3137 37.9495L48.6272 41.6651L48.6007 41.3873C48.2947 38.1758 49.1472 34.9529 51.001 32.3125ZM65.0315 47.4127C64.8098 48.5687 63.8334 49.4057 62.6571 49.4484C59.6086 49.5583 56.5471 48.9197 53.7909 47.624C54.306 47.677 54.8223 47.7033 55.338 47.7033C57.8697 47.7031 60.3814 47.0685 62.6276 45.8356C63.1248 45.5627 63.5308 45.1854 63.8335 44.7456L64.1068 44.9581C64.856 45.5403 65.2103 46.4809 65.0315 47.4127Z" fill="black"/>
</svg>
